<svg width="256" height="256" viewBox="0 0 256 256" fill="none" xmlns="http://www.w3.org/2000/svg">
<g clip-path="url(#clip0_870_112)">
<path d="M29.7293 119V0.739997H44.3093V51.284H82.2173V0.739997H96.7973V119H82.2173V64.568H44.3093V119H29.7293ZM185.51 119V13.862H153.11V0.577999H232.49V13.862H200.09V119H185.51ZM55.9733 253V147.862H23.5733V134.578H102.953V147.862H70.5533V253H55.9733ZM159.104 253V134.74H197.174C204.518 134.74 210.89 136.198 216.29 139.114C221.69 141.922 225.848 145.918 228.764 151.102C231.788 156.286 233.3 162.442 233.3 169.57C233.3 176.59 231.788 182.746 228.764 188.038C225.848 193.222 221.69 197.272 216.29 200.188C210.89 202.996 204.518 204.4 197.174 204.4H173.684V253H159.104ZM173.684 191.278H197.174C203.546 191.278 208.622 189.334 212.402 185.446C216.29 181.45 218.234 176.158 218.234 169.57C218.234 162.874 216.29 157.582 212.402 153.694C208.622 149.806 203.546 147.862 197.174 147.862H173.684V191.278Z" fill="#FF9500"/>
</g>
<defs>
<clipPath id="clip0_870_112">
<rect width="256" height="256" fill="white"/>
</clipPath>
</defs>
</svg>
